<?xml version="1.0" encoding="iso-8859-1"?>
<!-- Generator: Adobe Illustrator 19.0.0, SVG Export Plug-In . SVG Version: 6.00 Build 0)  -->
<svg version="1.1" id="Capa_1" xmlns="http://www.w3.org/2000/svg" xmlns:xlink="http://www.w3.org/1999/xlink" x="0px" y="0px"
	 viewBox="0 0 511.999 511.999" style="enable-background:new 0 0 511.999 511.999;" xml:space="preserve">
<g>
	<g>
		<path d="M345.463,47.958h-8.99c-4.143,0-7.5,3.357-7.5,7.5s3.357,7.5,7.5,7.5h8.99c4.143,0,7.5-3.357,7.5-7.5
			S349.606,47.958,345.463,47.958z"/>
	</g>
</g>
<g>
	<g>
		<path d="M429.998,410.11h-25.135c-4.143,0-7.5,3.357-7.5,7.5s3.357,7.5,7.5,7.5h25.135c4.143,0,7.5-3.357,7.5-7.5
			S434.141,410.11,429.998,410.11z"/>
	</g>
</g>
<g>
	<g>
		<path d="M439.6,436.244h-46.08c-4.143,0-7.5,3.357-7.5,7.5s3.357,7.5,7.5,7.5h46.08c4.143,0,7.5-3.357,7.5-7.5
			S443.743,436.244,439.6,436.244z"/>
	</g>
</g>
<g>
	<g>
		<path d="M439.6,462.379h-46.08c-4.143,0-7.5,3.357-7.5,7.5s3.357,7.5,7.5,7.5h46.08c4.143,0,7.5-3.357,7.5-7.5
			S443.743,462.379,439.6,462.379z"/>
	</g>
</g>
<g>
	<g>
		<path d="M376.833,226.333c-3.784,0-5.37,0-9.187,0l-23.932-58.33c3.379-0.729,5.913-3.731,5.913-7.328c0-4.143-3.357-7.5-7.5-7.5
			H261.47v-24.072c0-4.143-3.357-7.5-7.5-7.5c-4.143,0-7.5,3.357-7.5,7.5v24.072h-80.656c-4.143,0-7.5,3.357-7.5,7.5
			c0,3.598,2.533,6.6,5.913,7.328l-23.933,58.33c-3.816,0-5.401,0-9.187,0c-4.143,0-7.5,3.357-7.5,7.5
			c0,4.062,3.23,7.361,7.261,7.488c3.591,21.982,22.707,38.814,45.69,38.814c22.982,0,42.099-16.832,45.69-38.814
			c4.031-0.127,7.261-3.426,7.261-7.488c0-4.143-3.357-7.5-7.5-7.5c-3.784,0-5.369,0-9.186,0l-23.862-58.158h57.51v129.74h-10.518
			c-15.045,0-27.665,10.547-30.876,24.633c-6.621,2.301-11.395,8.588-11.395,15.982v3.667c0,9.336,7.595,16.931,16.931,16.931
			h86.709c9.336,0,16.931-7.595,16.931-16.931v-3.667c0-7.394-4.773-13.681-11.395-15.982
			c-3.211-14.086-15.831-24.633-30.876-24.633h-10.516v-129.74h57.512l-23.862,58.158c-3.815,0-5.4,0-9.186,0
			c-4.143,0-7.5,3.357-7.5,7.5c0,4.062,3.23,7.361,7.261,7.488c3.591,21.982,22.707,38.814,45.69,38.814s42.099-16.832,45.69-38.814
			c4.031-0.127,7.261-3.426,7.261-7.488C384.333,229.69,380.976,226.333,376.833,226.333z M176.555,265.135
			c-14.676,0-27.025-10.151-30.395-23.801h60.789C203.579,254.984,191.231,265.135,176.555,265.135z M196.605,226.333h-40.1
			l20.05-48.865L196.605,226.333z M298.941,337.486c0.479,0.741,0.311,1.329,0.311,4.711c0,1.064-0.865,1.93-1.93,1.93h-86.709
			c-1.064,0-1.93-0.865-1.93-1.93c0-3.381-0.168-3.969,0.311-4.711c1.267,0.686,2.716,1.076,4.255,1.076h81.436
			C296.225,338.563,297.674,338.172,298.941,337.486z M271.983,312.916c6.298,0,11.786,3.515,14.622,8.684h-65.274
			c2.836-5.167,8.323-8.684,14.622-8.684H271.983z M331.381,177.468l20.05,48.865h-40.1L331.381,177.468z M331.381,265.135
			c-14.676,0-27.025-10.151-30.395-23.801h60.789C358.407,254.984,346.057,265.135,331.381,265.135z"/>
	</g>
</g>
<g>
	<g>
		<path d="M472.528,421.931c-4.143,0-7.5,3.357-7.5,7.5v66.975c0,0.326-0.266,0.592-0.592,0.592h-94.206V326.865
			c9.282,0,83.576,0,94.206,0c0.326,0,0.592,0.266,0.592,0.592v66.974c-0.001,4.142,3.356,7.499,7.499,7.499s7.5-3.357,7.5-7.5
			v-66.974c0-8.599-6.994-15.593-15.593-15.593h-46.049V37.112c0-15.916-12.948-28.864-28.864-28.864H187.797
			C186.199,3.463,181.686,0,176.37,0c-4.65,0-39.224,0-43.873,0c-5.315,0-9.831,3.463-11.428,8.248c-9.607,0-54.073,0-60.235,0
			c-15.916,0-28.864,12.948-28.864,28.864v446.023c0,15.916,12.948,28.864,28.864,28.864c2.211,0,172.276,0,174.495,0
			c4.143,0,7.5-3.357,7.5-7.5c0-4.143-3.357-7.5-7.5-7.5H108.752V23.249h11.692v77.278c0,8.209,9.053,13.074,15.888,8.807
			l18.102-11.314l18.102,11.314c6.821,4.261,15.889-0.585,15.889-8.807V23.249h201.098c7.645,0,13.863,6.219,13.863,13.863v274.751
			c-7.243,0-57.435,0-63.455,0c-8.599,0-15.593,6.994-15.593,15.593v168.95c0,0.198,0.004,0.396,0.011,0.592h-54.016
			c-4.143,0-7.5,3.357-7.5,7.5c0,4.143,3.357,7.5,7.5,7.5c10.772,0,183.936,0,194.103,0c8.599,0,15.593-6.994,15.593-15.593v-66.975
			C480.028,425.288,476.671,421.931,472.528,421.931z M93.751,496.999H60.835c-7.644,0-13.863-6.219-13.863-13.863V37.112
			c0-7.644,6.219-13.863,13.863-13.863h32.916V496.999z M146.933,85.018l-11.488,7.18v-76.45v-0.748h11.488V85.018z M173.421,92.198
			l-11.488-7.18V15.001h11.488V92.198z M355.228,496.999H339.93c-0.326,0-0.592-0.266-0.592-0.592v-168.95
			c0-0.326,0.266-0.592,0.592-0.592h15.298V496.999z"/>
	</g>
</g>
<g>
</g>
<g>
</g>
<g>
</g>
<g>
</g>
<g>
</g>
<g>
</g>
<g>
</g>
<g>
</g>
<g>
</g>
<g>
</g>
<g>
</g>
<g>
</g>
<g>
</g>
<g>
</g>
<g>
</g>
</svg>
