<?xml version="1.0"?>
<svg xmlns="http://www.w3.org/2000/svg" viewBox="0 0 64 64" width="512" height="512"><g id="analytic"><path d="M59,2H5A3,3,0,0,0,2,5V59a3,3,0,0,0,3,3H59a3,3,0,0,0,3-3V5A3,3,0,0,0,59,2ZM52.572,48.978a16.364,16.364,0,0,0,1.406-1.406L60,53.585v2.821ZM39,55V52.708a15.856,15.856,0,0,0,2,.241V55ZM29,55V46.292a16.2,16.2,0,0,0,2,2.3V55ZM27,31.485a15.708,15.708,0,0,0,0,11.03V55H23V29h4Zm10-9.674a15.953,15.953,0,0,0-4,1.971V19h4ZM42,23A14,14,0,1,1,28,37,14.015,14.015,0,0,1,42,23Zm5-1.189a15.9,15.9,0,0,0-4-.76V15h4ZM33,50.218a15.953,15.953,0,0,0,4,1.971V55H33Zm10,2.731a15.9,15.9,0,0,0,4-.76V55H43Zm6-1.584a16.094,16.094,0,0,0,1.991-1.14L55.766,55H49ZM5,4H59a1,1,0,0,1,1,1V8H4V5A1,1,0,0,1,5,4ZM59,60H5a1,1,0,0,1-1-1V10H60V50.758L55.226,45.99A15.961,15.961,0,0,0,49,22.635V14a1,1,0,0,0-1-1H42a1,1,0,0,0-1,1v7.051a15.856,15.856,0,0,0-2,.241V18a1,1,0,0,0-1-1H32a1,1,0,0,0-1,1v7.411a16.079,16.079,0,0,0-2.046,2.359A.987.987,0,0,0,28,27H22a1,1,0,0,0-1,1V55H19V38a1,1,0,0,0-1-1H12a1,1,0,0,0-1,1V55H9V12H7V56a1,1,0,0,0,1,1H57.766l2.2,2.2A.987.987,0,0,1,59,60ZM17,55H13V39h4Z"/><rect x="6" y="5" width="2" height="2"/><rect x="10" y="5" width="2" height="2"/><rect x="14" y="5" width="2" height="2"/><path d="M42,49A12,12,0,1,0,30,37,12.013,12.013,0,0,0,42,49Zm0-22A10,10,0,1,1,32,37,10.011,10.011,0,0,1,42,27Z"/></g></svg>
