<?xml version="1.0" standalone="no"?>
<!DOCTYPE svg PUBLIC "-//W3C//DTD SVG 20010904//EN"
 "http://www.w3.org/TR/2001/REC-SVG-20010904/DTD/svg10.dtd">
<svg version="1.0" xmlns="http://www.w3.org/2000/svg"
 width="1080.000000pt" height="1080.000000pt" viewBox="0 0 1080.000000 1080.000000"
 preserveAspectRatio="xMidYMid meet">

<g transform="translate(0.000000,1080.000000) scale(0.100000,-0.100000)"
fill="#000000" stroke="none">
<path d="M4402 7197 c-18 -42 -14 -68 4 -34 8 16 13 36 11 45 -3 13 -7 10 -15
-11z"/>
<path d="M6142 7197 c-7 -16 -12 -45 -11 -65 l1 -37 14 50 c16 58 13 95 -4 52z"/>
<path d="M6526 7191 c-18 -35 -19 -41 -7 -41 11 0 36 59 28 66 -3 3 -13 -8
-21 -25z"/>
<path d="M6886 7165 c-10 -30 -14 -60 -10 -66 4 -7 15 13 25 47 21 67 22 74
10 74 -4 0 -16 -25 -25 -55z"/>
<path d="M4709 7183 c-17 -45 -4 -62 14 -19 20 45 20 46 7 46 -6 0 -15 -12
-21 -27z"/>
<path d="M7099 7183 c-5 -15 -7 -39 -3 -53 7 -24 8 -23 14 12 4 20 12 44 20
52 10 13 10 16 -4 16 -9 0 -21 -12 -27 -27z"/>
<path d="M4336 5204 c-3 -9 -6 -28 -5 -42 l1 -27 13 30 c8 17 14 36 15 43 0
17 -17 15 -24 -4z"/>
<path d="M6200 5194 c-13 -32 -13 -96 -1 -74 11 20 25 100 17 100 -4 0 -11
-12 -16 -26z"/>
<path d="M6595 5183 c-22 -53 -28 -80 -20 -93 6 -10 25 31 52 113 11 33 -17
17 -32 -20z"/>
<path d="M6979 5193 c-5 -15 -8 -41 -7 -57 4 -30 4 -30 16 12 7 24 16 50 19
58 3 8 0 14 -6 14 -6 0 -16 -12 -22 -27z"/>
<path d="M7380 5190 c-17 -41 -6 -50 14 -11 18 35 19 41 7 41 -5 0 -14 -14
-21 -30z"/>
<path d="M4650 5191 c-12 -24 -13 -54 -1 -47 13 9 32 66 21 66 -5 0 -14 -9
-20 -19z"/>
<path d="M3476 3214 c-3 -9 -6 -28 -5 -42 l1 -27 13 30 c8 17 14 36 15 43 0
17 -17 15 -24 -4z"/>
<path d="M5643 3215 c-24 -47 -34 -94 -24 -112 9 -16 10 -16 11 4 0 13 7 41
16 62 17 44 15 80 -3 46z"/>
<path d="M6027 3173 c-15 -56 -19 -98 -9 -88 3 3 15 37 28 75 16 51 18 70 9
70 -7 0 -19 -26 -28 -57z"/>
<path d="M6230 3174 c-21 -50 -37 -124 -25 -113 7 7 65 150 65 160 0 26 -20 2
-40 -47z"/>
<path d="M6955 3199 c-16 -31 -15 -46 3 -35 14 9 33 66 22 66 -5 0 -17 -14
-25 -31z"/>
<path d="M3790 3201 c-12 -24 -13 -54 -1 -47 13 9 32 66 21 66 -5 0 -14 -9
-20 -19z"/>
<path d="M6639 3193 c-5 -15 -7 -39 -3 -53 7 -24 8 -23 14 12 4 20 12 44 20
52 10 13 10 16 -4 16 -9 0 -21 -12 -27 -27z"/>
</g>
</svg>
